<?xml version="1.0" standalone="no"?>
<!DOCTYPE svg PUBLIC "-//W3C//DTD SVG 20010904//EN"
 "http://www.w3.org/TR/2001/REC-SVG-20010904/DTD/svg10.dtd">
<svg version="1.0" xmlns="http://www.w3.org/2000/svg"
 width="1024.000000pt" height="1024.000000pt" viewBox="0 0 1024.000000 1024.000000"
 preserveAspectRatio="xMidYMid meet">

<g transform="translate(0.000000,1024.000000) scale(0.100000,-0.100000)"
fill="#000000" stroke="none">
<path d="M4880 8963 c-222 -16 -501 -64 -704 -119 -464 -127 -923 -353 -1281
-631 -450 -349 -894 -938 -1106 -1466 -173 -428 -281 -957 -281 -1367 -1 -482
85 -918 272 -1385 122 -306 246 -524 468 -825 314 -424 726 -772 1232 -1037
322 -169 656 -282 1030 -348 245 -44 373 -55 626 -55 787 0 1538 254 2184 739
119 90 351 294 435 382 165 174 345 420 508 694 143 240 295 613 367 895 162
639 157 1225 -16 1871 -158 591 -490 1176 -914 1613 -311 321 -744 603 -1204
785 -347 138 -686 216 -1086 251 -106 9 -424 11 -530 3z m424 -343 c480 -28
860 -125 1290 -329 723 -343 1278 -950 1594 -1746 73 -183 154 -504 191 -755
38 -256 38 -620 1 -875 -59 -394 -143 -670 -309 -1010 -138 -283 -252 -460
-450 -698 l-65 -79 -12 79 c-6 43 -19 105 -27 138 -9 33 -34 142 -57 242 -38
171 -89 340 -90 300 0 -26 -54 -77 -80 -77 -25 0 -86 58 -114 110 l-19 35 -19
-215 c-36 -432 -102 -663 -265 -930 -102 -166 -133 -229 -133 -265 0 -47 -29
-77 -117 -123 -279 -144 -663 -268 -960 -311 -261 -38 -358 -44 -608 -38 -485
12 -894 109 -1330 316 -133 64 -199 113 -191 144 7 29 -24 90 -123 240 -131
198 -178 295 -226 472 -43 157 -66 319 -72 508 -3 97 -9 177 -14 177 -4 0 -20
-20 -35 -45 -54 -84 -112 -84 -149 -2 l-22 52 -41 -125 c-54 -165 -67 -217
-116 -462 l-41 -207 -82 97 c-107 128 -159 199 -261 362 -444 704 -601 1555
-442 2383 126 654 431 1231 895 1692 94 94 210 201 257 238 156 121 396 275
551 351 497 244 891 341 1477 364 25 1 121 -3 214 -8z"/>
<path d="M3914 7986 c-6 -15 76 -137 161 -242 44 -54 80 -112 73 -120 -2 -2
-45 17 -96 41 -125 60 -325 129 -449 154 -123 25 -123 25 -123 3 0 -18 83
-103 185 -189 l50 -42 -155 5 c-85 3 -213 11 -285 19 -71 8 -161 17 -200 20
-38 3 -77 8 -85 10 -10 2 -23 -13 -38 -43 -13 -26 -108 -189 -212 -362 -103
-173 -214 -362 -247 -420 -64 -112 -233 -427 -233 -435 0 -11 160 -4 225 10
168 36 359 115 503 209 37 23 148 108 247 187 218 176 274 217 345 257 65 37
163 62 243 62 113 0 257 -47 257 -85 0 -17 -19 -22 -123 -29 -207 -15 -356
-92 -503 -258 -29 -33 -82 -75 -129 -103 -141 -85 -261 -172 -313 -230 -50
-54 -134 -207 -148 -267 l-6 -27 82 35 c81 35 223 76 311 89 35 5 48 3 58 -9
11 -13 4 -21 -51 -55 -151 -94 -215 -158 -337 -339 -39 -58 -76 -140 -67 -149
2 -2 14 1 28 6 13 5 60 14 104 21 43 6 90 14 104 17 19 5 5 -15 -65 -88 -50
-52 -113 -128 -141 -170 -59 -88 -111 -223 -126 -324 -11 -75 -3 -379 10 -416
8 -20 11 -18 39 27 40 65 183 234 230 273 41 34 147 91 170 91 16 0 17 -16 2
-25 -29 -18 -127 -169 -174 -268 -101 -212 -120 -445 -53 -674 11 -40 24 -73
27 -73 3 0 24 26 45 58 94 136 235 287 252 269 3 -3 -3 -45 -14 -94 -32 -140
-34 -179 -17 -298 21 -141 72 -298 131 -401 56 -100 92 -144 158 -196 l51 -41
6 154 c10 238 68 487 152 654 17 34 60 91 101 133 l70 73 18 -73 c54 -219 248
-460 444 -553 38 -18 65 -41 92 -78 81 -109 193 -184 352 -235 191 -62 441
-55 642 18 106 39 176 85 263 175 39 40 108 97 155 128 96 63 204 166 257 245
65 98 122 223 140 303 16 78 17 78 32 54 9 -13 42 -55 73 -92 97 -117 193
-342 218 -508 10 -71 30 -301 30 -359 1 -31 1 -31 66 37 116 121 170 221 221
402 20 72 26 121 30 245 5 146 4 159 -21 235 -14 43 -23 81 -21 84 9 9 90 -56
137 -110 28 -31 78 -96 111 -144 34 -49 67 -90 73 -92 6 -2 20 35 34 89 43
177 23 472 -43 636 -28 67 -112 201 -172 272 -47 56 -32 63 55 24 49 -22 82
-49 168 -139 59 -61 127 -144 152 -183 25 -39 48 -72 52 -72 26 -1 21 414 -7
540 -19 87 -66 194 -123 277 -42 62 -99 114 -199 182 -35 23 -63 44 -63 48 0
14 123 -7 207 -36 50 -17 93 -31 97 -31 10 0 -34 102 -71 163 -49 81 -192 228
-287 295 -79 57 -106 85 -94 98 23 22 336 -73 412 -125 25 -18 46 -30 46 -27
0 18 -95 215 -125 260 -53 80 -216 216 -350 291 -27 16 -100 78 -161 139 -156
157 -243 196 -467 212 -90 6 -100 9 -109 30 -6 12 -8 30 -5 38 11 28 113 50
242 50 146 1 212 -20 302 -95 32 -27 88 -69 124 -94 36 -24 104 -78 150 -118
301 -262 638 -417 909 -417 65 0 71 2 66 18 -23 60 -643 1137 -700 1216 l-21
28 -125 -6 c-69 -3 -186 -13 -260 -21 -243 -26 -325 -33 -330 -28 -3 3 15 22
40 42 93 75 210 195 201 204 -15 15 -164 -12 -292 -53 -141 -46 -301 -106
-351 -131 -21 -10 -40 -19 -43 -19 -18 0 3 36 57 100 235 280 240 323 25 212
-230 -119 -428 -276 -527 -420 -13 -19 -19 -21 -55 -12 -22 5 -85 10 -140 10
l-100 0 0 -950 0 -950 22 0 c71 0 243 -104 373 -226 88 -84 186 -208 227 -287
41 -82 92 -222 109 -299 23 -109 21 -293 -5 -398 -26 -104 -96 -248 -153 -314
-94 -109 -225 -164 -371 -153 -151 11 -262 52 -323 120 l-35 38 3 96 3 96 58
14 c32 7 83 25 115 40 76 37 180 141 218 218 26 53 29 71 29 150 0 76 -4 98
-26 145 -57 118 -141 182 -266 200 -113 16 -411 13 -473 -6 -102 -30 -185
-101 -229 -193 -22 -47 -26 -70 -26 -146 0 -80 3 -97 31 -155 68 -142 196
-239 348 -265 l39 -6 -7 -99 c-3 -54 -9 -105 -12 -113 -3 -9 -24 -27 -46 -42
-153 -101 -373 -113 -531 -27 -59 32 -163 140 -205 213 -125 219 -128 553 -6
818 45 98 147 249 224 334 101 110 239 197 371 234 l62 17 -7 90 c-3 49 -6
475 -6 946 l0 856 -135 0 -135 -1 -30 39 c-34 44 -178 177 -260 240 -130 100
-326 206 -379 206 -12 0 -24 -7 -27 -14z m508 -1774 c40 -21 98 -83 98 -105 0
-4 -14 2 -32 13 l-32 19 -15 -47 c-14 -41 -21 -49 -57 -61 -38 -13 -44 -13
-68 3 -39 25 -68 76 -62 109 6 32 1 33 -42 7 -94 -57 -78 -212 30 -290 96 -70
231 -11 269 118 14 48 29 55 29 13 0 -46 -28 -113 -63 -150 -75 -78 -185 -94
-277 -38 -77 46 -113 101 -118 181 -5 81 9 124 58 175 88 91 180 108 282 53z
m1615 13 c91 -27 151 -116 152 -223 1 -65 -20 -113 -72 -165 -67 -67 -168 -95
-241 -67 -43 16 -104 79 -121 125 -26 66 -13 74 28 18 75 -102 188 -110 281
-20 33 31 45 53 51 83 9 60 -10 120 -55 168 l-39 41 -1 -53 c0 -29 -5 -62 -10
-73 -15 -27 -65 -51 -95 -43 -30 7 -92 74 -101 109 -5 20 -9 23 -20 14 -23
-19 -17 12 9 43 45 55 136 72 234 43z m-662 -1359 c34 -15 65 -59 65 -94 0
-29 -44 -64 -92 -73 -64 -12 -420 -11 -456 2 -34 12 -62 47 -62 79 0 36 20 61
63 81 37 16 67 19 245 19 153 0 211 -3 237 -14z m-84 -1077 c46 -14 92 -19
187 -19 l127 0 -81 -53 c-162 -107 -346 -139 -538 -97 -101 22 -145 43 -227
104 l-57 43 117 -1 c131 -1 195 17 274 78 l42 33 48 -35 c26 -19 75 -43 108
-53z"/>
</g>
</svg>
